<mxfile host="app.diagrams.net" modified="2024-07-11T22:44:31.284Z" agent="Mozilla/5.0 (Macintosh; Intel Mac OS X 10_15_7) AppleWebKit/537.36 (KHTML, like Gecko) Chrome/126.0.0.0 Safari/537.36" etag="LZpxSfuVZkxcijbOysBx" version="24.6.5" type="github">
  <diagram name="Page-1" id="atFdlXVNPNenRuwR08LR">
    <mxGraphModel dx="2202" dy="789" grid="1" gridSize="10" guides="1" tooltips="1" connect="1" arrows="1" fold="1" page="1" pageScale="1" pageWidth="850" pageHeight="1100" math="0" shadow="0">
      <root>
        <mxCell id="0" />
        <mxCell id="1" parent="0" />
        <mxCell id="uciV34WFaMNDTHBEuoeK-1" value="Appliance&lt;div&gt;&lt;br&gt;&lt;/div&gt;&lt;div&gt;&lt;br&gt;&lt;/div&gt;&lt;div&gt;&lt;br&gt;&lt;/div&gt;&lt;div&gt;&lt;br&gt;&lt;/div&gt;&lt;div&gt;&lt;br&gt;&lt;/div&gt;&lt;div&gt;&lt;br&gt;&lt;/div&gt;&lt;div&gt;&lt;br&gt;&lt;/div&gt;&lt;div&gt;&lt;br&gt;&lt;/div&gt;" style="rounded=0;whiteSpace=wrap;html=1;" parent="1" vertex="1">
          <mxGeometry x="100" y="160" width="190" height="130" as="geometry" />
        </mxCell>
        <mxCell id="uciV34WFaMNDTHBEuoeK-2" value="Exchange&lt;div&gt;- Active Directory&lt;/div&gt;&lt;div&gt;- Journal Mailboxes&lt;/div&gt;" style="rounded=0;whiteSpace=wrap;html=1;" parent="1" vertex="1">
          <mxGeometry x="100" y="350" width="190" height="60" as="geometry" />
        </mxCell>
        <mxCell id="uciV34WFaMNDTHBEuoeK-5" value="Archiving&amp;nbsp;&lt;span style=&quot;background-color: initial;&quot;&gt;service&lt;/span&gt;&lt;div&gt;&lt;span style=&quot;background-color: initial;&quot;&gt;- encrypter/decrypter&lt;/span&gt;&lt;/div&gt;&lt;div&gt;&lt;span style=&quot;background-color: initial;&quot;&gt;- tokenizer&lt;/span&gt;&lt;/div&gt;" style="rounded=1;whiteSpace=wrap;html=1;" parent="1" vertex="1">
          <mxGeometry x="140" y="190" width="130" height="40" as="geometry" />
        </mxCell>
        <mxCell id="uciV34WFaMNDTHBEuoeK-7" value="" style="rounded=0;whiteSpace=wrap;html=1;" parent="1" vertex="1">
          <mxGeometry x="360" y="160" width="390" height="240" as="geometry" />
        </mxCell>
        <mxCell id="uciV34WFaMNDTHBEuoeK-8" value="Reporting&lt;div&gt;service&lt;/div&gt;" style="rounded=1;whiteSpace=wrap;html=1;" parent="1" vertex="1">
          <mxGeometry x="370" y="300" width="120" height="60" as="geometry" />
        </mxCell>
        <mxCell id="uciV34WFaMNDTHBEuoeK-9" value="Audit&lt;div&gt;service&lt;/div&gt;" style="rounded=1;whiteSpace=wrap;html=1;" parent="1" vertex="1">
          <mxGeometry x="500" y="300" width="120" height="60" as="geometry" />
        </mxCell>
        <mxCell id="uciV34WFaMNDTHBEuoeK-10" value="Archiving&lt;div&gt;service&lt;/div&gt;" style="rounded=1;whiteSpace=wrap;html=1;" parent="1" vertex="1">
          <mxGeometry x="370" y="220" width="120" height="60" as="geometry" />
        </mxCell>
        <mxCell id="uciV34WFaMNDTHBEuoeK-11" value="Supervision&lt;div&gt;service&lt;/div&gt;" style="rounded=1;whiteSpace=wrap;html=1;" parent="1" vertex="1">
          <mxGeometry x="500" y="220" width="120" height="60" as="geometry" />
        </mxCell>
        <mxCell id="uciV34WFaMNDTHBEuoeK-12" value="Discovery&lt;div&gt;service&lt;/div&gt;" style="rounded=1;whiteSpace=wrap;html=1;" parent="1" vertex="1">
          <mxGeometry x="630" y="220" width="110" height="60" as="geometry" />
        </mxCell>
        <mxCell id="uciV34WFaMNDTHBEuoeK-13" value="Pumper service" style="rounded=1;whiteSpace=wrap;html=1;" parent="1" vertex="1">
          <mxGeometry x="140" y="250" width="110" height="30" as="geometry" />
        </mxCell>
        <mxCell id="uciV34WFaMNDTHBEuoeK-15" value="" style="shape=flexArrow;endArrow=classic;html=1;rounded=0;entryX=0.586;entryY=1.025;entryDx=0;entryDy=0;entryPerimeter=0;exitX=0.592;exitY=-0.02;exitDx=0;exitDy=0;exitPerimeter=0;" parent="1" source="uciV34WFaMNDTHBEuoeK-2" target="uciV34WFaMNDTHBEuoeK-1" edge="1">
          <mxGeometry width="50" height="50" relative="1" as="geometry">
            <mxPoint x="400" y="380" as="sourcePoint" />
            <mxPoint x="450" y="330" as="targetPoint" />
          </mxGeometry>
        </mxCell>
        <mxCell id="uciV34WFaMNDTHBEuoeK-17" value="sync" style="text;html=1;align=center;verticalAlign=middle;resizable=0;points=[];autosize=1;strokeColor=none;fillColor=none;" parent="1" vertex="1">
          <mxGeometry x="160" y="310" width="50" height="30" as="geometry" />
        </mxCell>
        <mxCell id="uciV34WFaMNDTHBEuoeK-20" value="" style="shape=flexArrow;endArrow=classic;startArrow=classic;html=1;rounded=0;exitX=1.007;exitY=0.691;exitDx=0;exitDy=0;exitPerimeter=0;entryX=-0.012;entryY=0.378;entryDx=0;entryDy=0;entryPerimeter=0;" parent="1" source="uciV34WFaMNDTHBEuoeK-1" target="uciV34WFaMNDTHBEuoeK-7" edge="1">
          <mxGeometry width="100" height="100" relative="1" as="geometry">
            <mxPoint x="370" y="400" as="sourcePoint" />
            <mxPoint x="470" y="300" as="targetPoint" />
          </mxGeometry>
        </mxCell>
        <mxCell id="uciV34WFaMNDTHBEuoeK-21" value="Backend Services" style="text;html=1;align=center;verticalAlign=middle;resizable=0;points=[];autosize=1;strokeColor=none;fillColor=none;" parent="1" vertex="1">
          <mxGeometry x="490" y="160" width="120" height="30" as="geometry" />
        </mxCell>
        <mxCell id="KOVVbHCTlGGZfohRkDMk-2" value="Enterprise Email Archiving and Supervision Solutions" style="rounded=0;whiteSpace=wrap;html=1;" vertex="1" parent="1">
          <mxGeometry x="200" y="40" width="470" height="50" as="geometry" />
        </mxCell>
        <mxCell id="KOVVbHCTlGGZfohRkDMk-3" value="&lt;div style=&quot;text-align: left;&quot;&gt;&lt;span style=&quot;background-color: initial;&quot;&gt;Requirements for reporting service&lt;/span&gt;&lt;/div&gt;&lt;div&gt;&lt;ul&gt;&lt;li style=&quot;text-align: left;&quot;&gt;Create/Update/Delete a new report job to run as either run once or with a scheduled time/interval&lt;/li&gt;&lt;li style=&quot;text-align: left;&quot;&gt;&lt;span style=&quot;background-color: initial;&quot;&gt;Query all report jobs owned by the user/user group&lt;/span&gt;&lt;/li&gt;&lt;li style=&quot;text-align: left;&quot;&gt;Query the status of a job (running, failed, finished, etc)&amp;nbsp;&lt;/li&gt;&lt;li style=&quot;text-align: left;&quot;&gt;Support generic filtering choice for report inputs and outputs.&lt;/li&gt;&lt;li style=&quot;text-align: left;&quot;&gt;support multiple output formats (csv, pdf, xls)&lt;/li&gt;&lt;li style=&quot;text-align: left;&quot;&gt;option to persist the generated reports in cloud&lt;/li&gt;&lt;/ul&gt;&lt;div style=&quot;text-align: left;&quot;&gt;&lt;br&gt;&lt;/div&gt;&lt;/div&gt;&lt;div style=&quot;text-align: left;&quot;&gt;Drawbacks of Legacy report generation.&lt;/div&gt;&lt;div style=&quot;text-align: left;&quot;&gt;&lt;ul&gt;&lt;li&gt;separate API for each report and not a generic system with predefined inputs and output columns.&lt;/li&gt;&lt;li&gt;not backwards compatible&lt;/li&gt;&lt;li&gt;on error, the entire report generation was restarting.&lt;/li&gt;&lt;/ul&gt;&lt;/div&gt;" style="rounded=0;whiteSpace=wrap;html=1;" vertex="1" parent="1">
          <mxGeometry x="90" y="510" width="670" height="280" as="geometry" />
        </mxCell>
      </root>
    </mxGraphModel>
  </diagram>
</mxfile>
